<svg id="Layer_3" enable-background="new 0 0 64 64" height="512" viewBox="0 0 64 64" width="512" xmlns="http://www.w3.org/2000/svg"><g><path d="m62 54h-6v-49c0-1.657 1.343-3 3-3 1.657 0 3 1.343 3 3z" fill="#f4b2b0"/><g fill="#b3404a"><path d="m4 56.999h45.999c1.654 0 3-1.346 3-3v-36.999c0-1.654-1.346-3-3-3h-2.001v-2c0-.352-.184-.677-.485-.858l-.712-.427c-1.199-.72-2.476-1.305-3.803-1.746v-6.969c0-.369-.202-.708-.527-.882-.326-.174-.721-.154-1.027.049l-14.473 9.649-.17-.102c-2.961-1.776-6.351-2.714-9.802-2.714-3.452 0-6.841.938-9.802 2.715l-.712.427c-.301.181-.485.506-.485.858v2h-2c-1.654 0-3 1.346-3 3v37c0 1.653 1.346 2.999 3 2.999zm38.554-14.167c.277-.186.444-.498.444-.833v-30.909c.963.362 1.892.81 2.774 1.34l.226.136v37.694c-2.764-1.481-5.855-2.26-9-2.26-.814 0-1.627.053-2.431.156zm-14.556-30.297 13-8.667v37.596l-13 8.667zm-19.998.03.226-.136c2.65-1.589 5.684-2.429 8.774-2.429 3.088 0 6.122.84 8.772 2.43l.227.136v37.694c-5.529-2.962-12.472-2.962-17.999 0zm-5 4.435c0-.552.448-1 1-1h2v36c0 .36.193.693.507.871.316.179.699.172 1.007-.013l.712-.427c2.65-1.59 5.685-2.431 8.774-2.431 3.088 0 6.122.841 8.772 2.431l.685.411c.022.014.046.028.069.041.147.079.31.118.471.118h.003c.178 0 .355-.048.514-.143l.712-.427c2.65-1.59 5.685-2.431 8.774-2.431 3.088 0 6.122.841 8.772 2.431l.712.427c.308.184.692.191 1.007.013.313-.178.507-.51.507-.871v-36h2.001c.552 0 1 .448 1 1v37c0 .552-.448 1-1 1h-45.999c-.552 0-1-.448-1-1z"/><path d="m9.999 19h13.999v2h-13.999z"/><path d="m9.999 35h13.999v2h-13.999z"/><path d="m9.999 23h13.999v2h-13.999z"/><path d="m9.999 27h4.999v2h-4.999z"/><path d="m19 27h4.999v2h-4.999z"/><path d="m9.999 31h4.999v2h-4.999z"/><path d="m19 31h4.999v2h-4.999z"/><path d="m30.467 13.999h8.062v2.001h-8.062z" transform="matrix(.868 -.496 .496 .868 -2.895 19.104)"/><path d="m30.467 18.999h8.062v2.001h-8.062z" transform="matrix(.868 -.496 .496 .868 -5.377 19.763)"/><path d="m30.467 23.999h8.062v2.001h-8.062z" transform="matrix(.868 -.496 .496 .868 -7.859 20.423)"/><path d="m52.999 8.999c0-1.302.839-2.401 2-2.815v47.815c0 .111.03.213.063.312l-.012.004 2 6c.136.408.519.684.949.684v2h1.999v-2c.431 0 .813-.275.949-.684l2-6-.012-.004c.033-.1.063-.202.063-.312v-48.999c0-2.206-1.794-4-3.999-4-1.892 0-3.471 1.323-3.886 3.089-2.335.42-4.114 2.456-4.114 4.91v3h2zm6.278 50h-.557l-1.334-4h3.225zm-2.278-53.999c0-1.103.897-2 2.001-2 1.102 0 1.998.897 1.998 2v48h-3.999z"/></g></g></svg>