<?xml version="1.0" encoding="iso-8859-1"?>
<!-- Generator: Adobe Illustrator 19.0.0, SVG Export Plug-In . SVG Version: 6.00 Build 0)  -->
<svg version="1.1" id="Capa_1" xmlns="http://www.w3.org/2000/svg" xmlns:xlink="http://www.w3.org/1999/xlink" x="0px" y="0px"
	 viewBox="0 0 512 512" style="enable-background:new 0 0 512 512;" xml:space="preserve">
<circle style="fill:#FF525D;" cx="256" cy="256" r="256"/>
<path style="fill:#494B5B;" d="M269.963,21.944H49.776c-14.795,0-26.788,11.993-26.788,26.788v161.955
	c0,14.795,11.993,26.788,26.788,26.788h220.188c14.795,0,26.788-11.993,26.788-26.788V48.732
	C296.751,33.937,284.758,21.944,269.963,21.944z"/>
<path style="fill:#5C5E70;" d="M269.963,0.001H49.776c-14.795,0-26.788,11.993-26.788,26.788v161.955
	c0,14.795,11.993,26.788,26.788,26.788h220.188c14.795,0,26.788-11.993,26.788-26.788V26.789
	C296.751,11.994,284.758,0.001,269.963,0.001z"/>
<g>
	<path style="fill:#FFD15C;" d="M96.797,49.072l-6.685-26.709c-0.693-2.769-3.182-4.712-6.036-4.712H56.549
		c-3.437,0-6.223,2.786-6.223,6.223v0.106c0,3.437,2.786,6.223,6.223,6.223h17.662c2.865,0,5.36,1.956,6.044,4.739l4.627,18.842l0,0
		l0,0l23.49,95.671c0.683,2.783,3.179,4.739,6.044,4.739h18.682h70.694h18.682c2.865,0,5.36-1.956,6.044-4.739l21.599-87.964
		c0.962-3.921-2.006-7.707-6.044-7.707H102.834C99.979,53.783,97.49,51.841,96.797,49.072z M109.032,66.334h6.819
		c3.117,0,5.752,2.305,6.167,5.395l0.566,4.213c0.502,3.732-2.401,7.052-6.167,7.052h-6.362c-2.871,0-5.37-1.964-6.047-4.754
		l-1.023-4.213C102.033,70.108,105.001,66.334,109.032,66.334z M116.125,95.544h3.651c3.117,0,5.752,2.305,6.167,5.394l0.689,5.125
		c0.502,3.732-2.401,7.052-6.167,7.052h-3.095c-2.871,0-5.37-1.964-6.047-4.754l-1.244-5.125
		C109.126,99.319,112.094,95.544,116.125,95.544z M118.248,136.887l-0.857-3.529c-0.951-3.917,2.016-7.691,6.047-7.691h0.382
		c3.117,0,5.752,2.305,6.168,5.395l0.474,3.529c0.502,3.732-2.401,7.051-6.168,7.051l0,0
		C121.424,141.642,118.926,139.678,118.248,136.887z M155.944,141.642h-6.427c-3.117,0-5.752-2.305-6.168-5.395l-0.474-3.529
		c-0.502-3.732,2.401-7.051,6.168-7.051h6.902c3.437,0,6.223,2.786,6.223,6.223v3.529
		C162.167,138.855,159.38,141.642,155.944,141.642z M155.944,113.116h-10.259c-3.117,0-5.752-2.305-6.168-5.395l-0.689-5.125
		c-0.502-3.732,2.401-7.051,6.167-7.051h10.947c3.437,0,6.223,2.786,6.223,6.223v5.125
		C162.167,110.33,159.38,113.116,155.944,113.116z M155.944,82.993h-14.305c-3.117,0-5.752-2.306-6.168-5.395l-0.566-4.213
		c-0.502-3.732,2.401-7.051,6.168-7.051h14.871c3.437,0,6.223,2.786,6.223,6.223v4.213C162.167,80.207,159.38,82.993,155.944,82.993
		z M187.368,141.642h-6.427c-3.437,0-6.223-2.786-6.223-6.223v-3.529c0-3.437,2.786-6.223,6.223-6.223h6.902
		c3.766,0,6.669,3.319,6.167,7.051l-0.474,3.529C193.121,139.336,190.485,141.642,187.368,141.642z M191.201,113.116h-10.259
		c-3.437,0-6.223-2.786-6.223-6.223v-5.125c0-3.437,2.786-6.223,6.223-6.223h10.947c3.766,0,6.669,3.319,6.168,7.051l-0.689,5.125
		C196.953,110.81,194.317,113.116,191.201,113.116z M195.246,82.993h-14.306c-3.437,0-6.223-2.786-6.223-6.223v-4.213
		c0-3.437,2.786-6.223,6.223-6.223h14.871c3.766,0,6.669,3.319,6.168,7.051l-0.566,4.213C201,80.688,198.363,82.993,195.246,82.993z
		 M212.59,141.642L212.59,141.642c-3.766,0-6.669-3.319-6.168-7.051l0.474-3.529c0.415-3.089,3.051-5.395,6.167-5.395h0.382
		c4.031,0,6.999,3.774,6.047,7.691l-0.857,3.529C217.959,139.678,215.461,141.642,212.59,141.642z M219.516,113.116h-3.094
		c-3.766,0-6.669-3.319-6.168-7.051l0.689-5.125c0.415-3.089,3.051-5.395,6.168-5.395h3.651c4.031,0,6.999,3.774,6.047,7.691
		l-1.244,5.125C224.886,111.151,222.388,113.116,219.516,113.116z M214.301,75.942l0.566-4.213c0.415-3.089,3.051-5.395,6.167-5.395
		h6.819c4.031,0,6.999,3.774,6.047,7.691l-1.023,4.213c-0.677,2.79-3.176,4.754-6.047,4.754h-6.362
		C216.702,82.993,213.8,79.675,214.301,75.942z"/>
	<circle style="fill:#FFD15C;" cx="197.747" cy="186.044" r="16.312"/>
	<circle style="fill:#FFD15C;" cx="130.957" cy="186.044" r="16.312"/>
</g>
<path style="fill:#F9EED7;" d="M407.385,311.745v108.711c0,15.663-1.975,31.169-5.81,46.143C360.249,495.229,310.084,512,256,512
	c-53.959,0-103.999-16.687-145.272-45.192c-4.044-11.452-6.217-23.719-6.217-36.404V326.28c0-8.882,3.594-16.917,9.415-22.737
	c5.82-5.82,13.855-9.415,22.737-9.415c16.718,0,30.469,12.769,32.005,29.09c0.094,1.014,0.146,2.027,0.146,3.062V147.968
	c0-7.252,2.591-13.897,6.886-19.059c0.585-0.7,1.202-1.379,1.849-2.027c1.849-1.86,3.939-3.459,6.228-4.765
	c4.368-2.529,9.446-3.971,14.858-3.971c0,0,0.073,0,0.209,0.01c4.148,0.031,8.098,0.899,11.672,2.456
	c10.553,4.587,17.941,15.109,17.941,27.355v128.658c0-16.478,13.354-29.821,29.821-29.821s29.821,13.343,29.821,29.821v10.146
	c0-8.244,3.344-15.694,8.735-21.096c5.392-5.392,12.852-8.735,21.086-8.735c16.468,0,29.821,13.354,29.821,29.832v24.973
	c0-16.468,13.354-29.821,29.821-29.821C394.031,281.924,407.385,295.278,407.385,311.745z"/>
<g>
	<path style="fill:#E8DBC4;" d="M168.814,326.281v107.374c0,0-2.696-110.07-32.152-139.525
		C154.415,294.129,168.814,308.518,168.814,326.281z"/>
	<path style="fill:#E8DBC4;" d="M198.844,118.158c-0.136-0.01-0.209-0.01-0.209-0.01c-5.413,0-10.491,1.442-14.858,3.971
		c-2.288,1.306-4.378,2.905-6.228,4.765c-0.627,0.627-1.223,1.284-1.792,1.964c-0.018,0.022-0.04,0.042-0.057,0.063l0.001,0.002
		c-4.296,5.164-6.887,11.801-6.887,19.056V326.28c0-1.034-0.052-2.048-0.146-3.062v106.193c4.953-8.537,8.725-17.648,11.264-27.094
		c2.539-9.446,3.845-19.216,3.845-29.09V159.89c0-12.539,8.798-39.278,26.739-39.278
		C206.942,119.057,202.992,118.189,198.844,118.158z"/>
	<path style="fill:#E8DBC4;" d="M258.487,246.816c-0.136-0.01-0.209-0.01-0.209-0.01c-5.413,0-10.491,1.442-14.858,3.971
		c-2.288,1.306-4.378,2.905-6.228,4.765c-0.627,0.627-1.223,1.284-1.792,1.964c-0.018,0.022-0.04,0.042-0.057,0.063l0.001,0.002
		c-4.296,5.164-6.887,11.801-6.887,19.056l-0.146,68.106c4.953-8.537,8.725-17.648,11.264-27.094
		c2.539-9.446,3.845-19.216,3.845-29.09l0,0c0-12.539,8.798-39.278,26.739-39.278C266.585,247.715,262.635,246.848,258.487,246.816z
		"/>
	<path style="fill:#E8DBC4;" d="M318.13,256.962c-0.136-0.01-0.209-0.01-0.209-0.01c-5.413,0-10.491,1.442-14.858,3.971
		c-2.288,1.306-4.378,2.905-6.228,4.765c-0.627,0.627-1.223,1.284-1.792,1.964c-0.018,0.022-0.04,0.042-0.057,0.063l0.001,0.002
		c-4.296,5.164-6.887,11.801-6.887,19.056l-0.146,68.106c4.953-8.537,8.725-17.648,11.264-27.094s3.845-19.216,3.845-29.09l0,0
		c0-12.539,8.798-39.278,26.739-39.278C326.228,257.861,322.278,256.994,318.13,256.962z"/>
	<path style="fill:#E8DBC4;" d="M377.772,281.935c-0.136-0.01-0.209-0.01-0.209-0.01c-5.413,0-10.491,1.442-14.858,3.971
		c-2.288,1.306-4.378,2.905-6.228,4.765c-0.627,0.627-1.223,1.284-1.792,1.964c-0.018,0.022-0.04,0.042-0.057,0.063l0.001,0.002
		c-4.296,5.164-6.887,11.801-6.887,19.056l-0.146,68.106c4.953-8.537,8.725-17.648,11.264-27.094s3.845-19.216,3.845-29.09l0,0
		c0-12.539,8.798-39.278,26.739-39.278C385.87,282.834,381.921,281.967,377.772,281.935z"/>
</g>
<g>
</g>
<g>
</g>
<g>
</g>
<g>
</g>
<g>
</g>
<g>
</g>
<g>
</g>
<g>
</g>
<g>
</g>
<g>
</g>
<g>
</g>
<g>
</g>
<g>
</g>
<g>
</g>
<g>
</g>
</svg>
