<svg id="Layer_5" enable-background="new 0 0 64 64" height="512" viewBox="0 0 64 64" width="512" xmlns="http://www.w3.org/2000/svg"><g><path d="m18 53c-1.654 0-3 1.346-3 3s1.346 3 3 3 3-1.346 3-3-1.346-3-3-3zm0 4c-.552 0-1-.448-1-1s.448-1 1-1 1 .448 1 1-.448 1-1 1z"/><path d="m56 53c-1.654 0-3 1.346-3 3s1.346 3 3 3 3-1.346 3-3-1.346-3-3-3zm0 4c-.552 0-1-.448-1-1s.448-1 1-1 1 .448 1 1-.448 1-1 1z"/><path d="m60.767 50.889c.585-.156 1.119-.477 1.521-.951.571-.673.815-1.563.67-2.44-.234-1.424-1.555-2.498-3.071-2.498h-.64c1.083-1.144 1.753-2.684 1.753-4.381 0-.488-.056-.977-.167-1.45l-5.89-25.237c-.655-2.815-3.08-4.789-5.943-4.909v-.023c0-4.411-3.589-8-8-8s-8 3.589-8 8v.023c-2.863.12-5.288 2.094-5.943 4.909v-.001l-5.89 25.238c-.111.474-.167.962-.167 1.45 0 1.697.67 3.237 1.754 4.381h-3.038l-1.55-15.498c-.258-2.566-2.396-4.502-4.976-4.502h-9.19c-.882 0-1.716.387-2.288 1.062-.571.673-.815 1.563-.67 2.44.234 1.424 1.555 2.498 3.071 2.498h8.171l1.55 15.498c.121 1.202.665 2.255 1.463 3.046-2.521 1.06-4.297 3.554-4.297 6.456 0 3.859 3.141 7 7 7s7-3.141 7-7c0-1.958-.81-3.728-2.111-5h28.221c-1.3 1.272-2.11 3.042-2.11 5 0 3.859 3.141 7 7 7s7-3.141 7-7c0-2.017-.863-3.832-2.233-5.111zm-19.767-47.889c3.309 0 6 2.691 6 6h-12c0-3.309 2.691-6 6-6zm-18 37.619c0-.335.038-.67.114-.995l5.89-25.238v-.001c.444-1.904 2.068-3.244 3.996-3.362v3.977h-2v2h6v-2h-2v-4h12v4h-2v2h6v-2h-2v-3.977c1.928.118 3.552 1.458 3.996 3.363l5.89 25.238c.076.325.114.66.114.995 0 2.416-1.965 4.381-4.381 4.381h-27.238c-2.416 0-4.381-1.965-4.381-4.381zm0 15.381c0 2.757-2.243 5-5 5s-5-2.243-5-5 2.243-5 5-5 5 2.243 5 5zm-4.19-7c-1.548 0-2.831-1.161-2.985-2.701l-1.55-15.497c-.103-1.028-.959-1.802-1.991-1.802h-8.171c-.54 0-1.022-.362-1.099-.824-.05-.302.029-.593.223-.821.192-.226.469-.355.763-.355h9.19c1.548 0 2.831 1.161 2.985 2.701l1.55 15.497c.103 1.028.959 1.802 1.991 1.802h7.665 27.238 5.268c.54 0 1.022.362 1.099.824.05.302-.029.593-.223.821-.192.226-.469.355-.763.355zm37.19 12c-2.757 0-5-2.243-5-5s2.243-5 5-5 5 2.243 5 5-2.243 5-5 5z"/><path d="m41 19c-6.617 0-12 5.383-12 12s5.383 12 12 12 12-5.383 12-12-5.383-12-12-12zm0 22c-.625 0-1.415-1.099-2.028-3h4.056c-.613 1.901-1.403 3-2.028 3zm-2.541-5c-.23-1.169-.39-2.515-.44-4h5.963c-.051 1.485-.21 2.831-.44 4zm-7.408-4h4.967c.044 1.374.182 2.73.407 4h-4.072c-.697-1.2-1.158-2.553-1.302-4zm9.949-11c.625 0 1.415 1.099 2.028 3h-4.056c.613-1.901 1.403-3 2.028-3zm2.541 5c.23 1.169.39 2.515.44 4h-5.963c.051-1.485.21-2.831.44-4zm-7.523 4h-4.967c.144-1.447.606-2.8 1.302-4h4.072c-.225 1.27-.363 2.626-.407 4zm9.964 2h4.967c-.144 1.447-.606 2.8-1.302 4h-4.072c.225-1.27.363-2.626.407-4zm0-2c-.044-1.374-.182-2.73-.407-4h4.072c.697 1.2 1.158 2.553 1.302 4zm2.147-6h-3.005c-.259-.923-.574-1.758-.946-2.473 1.509.508 2.859 1.361 3.951 2.473zm-10.307-2.473c-.371.715-.687 1.55-.946 2.473h-3.005c1.092-1.112 2.442-1.965 3.951-2.473zm-3.951 16.473h3.005c.259.923.574 1.758.946 2.473-1.509-.508-2.859-1.361-3.951-2.473zm10.307 2.473c.371-.715.687-1.55.946-2.473h3.005c-1.092 1.112-2.442 1.965-3.951 2.473z"/></g></svg>