<svg height="512" viewBox="0 0 64 64" width="512" xmlns="http://www.w3.org/2000/svg"><g id="Delivery_Cart" data-name="Delivery Cart"><path d="m41 30h14v19h-14z" fill="#2488ff"/><path d="m21 32h20v17h-20z" fill="#ffcd00"/><path d="m21 32h20a0 0 0 0 1 0 0v2.762a14.238 14.238 0 0 1 -14.238 14.238h-5.762a0 0 0 0 1 0 0v-17a0 0 0 0 1 0 0z" fill="#ffda44"/><path d="m35 11h14l1 15h-16z" fill="#b39a7c"/><path d="m35 11h14a14.065 14.065 0 0 1 -14.033 15h-.967z" fill="#c0ab91"/><path d="m16 15v4h-11a2.006 2.006 0 0 1 -2-2 2.015 2.015 0 0 1 2-2z" fill="#57565c"/><path d="m12 19h4v30h-4z" fill="#e0e0e2"/><circle cx="51" cy="57" fill="#3e3d42" r="4"/><circle cx="25" cy="57" fill="#3e3d42" r="4"/><path d="m34 32v7l-3-2-3 2v-7z" fill="#ff9811"/><path d="m24 24h17v8h-17z" fill="#f072ae"/><path d="m24 20h17v4h-17z" fill="#ea348b"/><path d="m41 26h16v4h-16z" fill="#006df0"/><path d="m45 42h7v3h-7z" fill="#e0e0e2"/><path d="m12 49h49v4h-49z" fill="#acabb1"/><path d="m51 59a2 2 0 1 1 2-2 2 2 0 0 1 -2 2z" fill="#e0e0e2"/><path d="m25 59a2 2 0 1 1 2-2 2 2 0 0 1 -2 2z" fill="#e0e0e2"/><path d="m46 14a1 1 0 0 1 -1-1v-2.882a3.081 3.081 0 0 0 -2.4-3.06 3.005 3.005 0 0 0 -3.6 2.942v3a1 1 0 0 1 -1 1 1 1 0 0 1 -1-1v-2.777a5.153 5.153 0 0 1 4.5-5.2 5.006 5.006 0 0 1 5.5 4.977v3a1 1 0 0 1 -1 1z" fill="#806749"/><path d="m12 19h4v1h-4z" fill="#898890"/><path d="m41 30h14v1h-14z" fill="#004fac"/><path d="m24 24h17v1h-17z" fill="#e4187a"/><rect fill="#ed539d" height="2" rx="1" width="6" x="25" y="21"/></g></svg>